<svg id="visual" viewBox="0 0 900 600" width="900" height="600" xmlns="http://www.w3.org/2000/svg" xmlns:xlink="http://www.w3.org/1999/xlink" version="1.1"><rect x="0" y="0" width="900" height="600" fill="#0066FF"/><path d="M0 571L30 567C60 563 120 555 180 559.2C240 563.3 300 579.7 360 584C420 588.3 480 580.7 540 572.7C600 564.7 660 556.3 720 552.5C780 548.7 840 549.3 870 549.7L900 550L900 601L870 601C840 601 780 601 720 601C660 601 600 601 540 601C480 601 420 601 360 601C300 601 240 601 180 601C120 601 60 601 30 601L0 601Z" fill="#FFFFFF" stroke-linecap="round" stroke-linejoin="miter"/></svg>